<svg xmlns="http://www.w3.org/2000/svg" viewBox="0 0 1000 1000"><defs><style>.cls-1{fill:#fff;}.cls-2{fill:teal;}.cls-3{fill:none;stroke:#fff;stroke-miterlimit:10;stroke-width:10px;}</style></defs><g id="Layer_14" data-name="Layer 14"><rect class="cls-1" width="1000" height="1000"/></g><g id="Layer_13" data-name="Layer 13"><circle class="cls-2" cx="499.7" cy="500.33" r="250"/><circle class="cls-1" cx="499.7" cy="500.33" r="217.5"/><circle class="cls-2" cx="499.7" cy="500.33" r="207.5"/><circle class="cls-1" cx="499.64" cy="500.39" r="170"/><circle class="cls-2" cx="499.64" cy="500.39" r="155"/><circle class="cls-1" cx="499.64" cy="500.39" r="122.5"/><circle class="cls-2" cx="499.64" cy="500.39" r="102.5"/><circle class="cls-1" cx="499.64" cy="500.39" r="75"/><circle class="cls-2" cx="499.64" cy="500.39" r="50"/><path class="cls-2" d="M322.93,323.55c97.63-97.63,255.92-97.63,353.55,0s97.63,255.92,0,353.55Z"/><circle class="cls-1" cx="500" cy="500" r="25"/><rect class="cls-1" x="619.73" y="331.19" width="25" height="250" transform="translate(507.75 -313.44) rotate(45)"/><rect class="cls-1" x="531.4" y="242.74" width="25" height="250" transform="translate(419.34 -276.88) rotate(45)"/><rect class="cls-1" x="498.48" y="207.45" width="20" height="250" transform="translate(384.01 -262.18) rotate(45)"/><rect class="cls-1" x="465.69" y="172.03" width="15" height="250" transform="translate(348.63 -247.6) rotate(45)"/><rect class="cls-1" x="657.64" y="366.49" width="20" height="250" transform="translate(543.08 -328.14) rotate(45)"/><rect class="cls-1" x="695.44" y="401.9" width="15" height="250" transform="translate(578.46 -342.73) rotate(45)"/><rect class="cls-1" x="733.29" y="437.26" width="10" height="250" transform="translate(613.82 -357.37) rotate(45)"/><rect class="cls-1" x="432.83" y="136.68" width="10" height="250" transform="translate(313.27 -232.95) rotate(45)"/><rect class="cls-1" x="490.37" y="230.02" width="12.5" height="534.44" transform="translate(1199.38 497.68) rotate(135)"/><path class="cls-3" d="M719.78,880.25c0-331.64-268.36-600-600-600l157.59-13.76c248.73,0,450,201.27,450,450l22.27-122.28c0-193.46-156.54-350-350-350"/></g></svg>